<svg width="29" height="29" viewBox="0 0 29 29" fill="none" xmlns="http://www.w3.org/2000/svg">
<path d="M24.8773 3.01748C24.8342 3.0189 24.7912 3.0227 24.7486 3.02888H17.3168C17.1622 3.02669 17.0087 3.05525 16.8652 3.1129C16.7217 3.17055 16.5912 3.25614 16.4811 3.36469C16.371 3.47324 16.2835 3.60259 16.2239 3.74522C16.1642 3.88786 16.1335 4.04093 16.1335 4.19554C16.1335 4.35015 16.1642 4.50323 16.2239 4.64586C16.2835 4.78849 16.371 4.91784 16.4811 5.0264C16.5912 5.13495 16.7217 5.22053 16.8652 5.27818C17.0087 5.33583 17.1622 5.36439 17.3168 5.36221H22.0837L14.1585 13.2873C14.0466 13.3948 13.9572 13.5236 13.8956 13.6661C13.834 13.8086 13.8015 13.9619 13.7999 14.1171C13.7983 14.2723 13.8277 14.4263 13.8864 14.57C13.9451 14.7137 14.0318 14.8443 14.1416 14.954C14.2513 15.0638 14.3819 15.1506 14.5256 15.2092C14.6693 15.2679 14.8233 15.2973 14.9785 15.2957C15.1337 15.2941 15.2871 15.2616 15.4295 15.2C15.572 15.1384 15.7008 15.049 15.8083 14.9371L23.7334 7.01195V11.7789C23.7312 11.9335 23.7598 12.087 23.8174 12.2304C23.8751 12.3739 23.9607 12.5045 24.0692 12.6146C24.1778 12.7247 24.3071 12.8121 24.4498 12.8718C24.5924 12.9314 24.7455 12.9622 24.9001 12.9622C25.0547 12.9622 25.2078 12.9314 25.3504 12.8718C25.493 12.8121 25.6224 12.7247 25.7309 12.6146C25.8395 12.5045 25.9251 12.3739 25.9827 12.2304C26.0404 12.087 26.0689 11.9335 26.0668 11.7789V4.3391C26.0893 4.17147 26.0751 4.00096 26.0251 3.83937C25.9752 3.67778 25.8908 3.52897 25.7776 3.40326C25.6645 3.27755 25.5254 3.17794 25.3699 3.11132C25.2144 3.04471 25.0464 3.01269 24.8773 3.01748ZM8.27509 4.77888C5.87332 4.77888 3.90009 6.75211 3.90009 9.15388V20.8205C3.90009 23.2223 5.87332 25.1955 8.27509 25.1955H19.9418C22.3435 25.1955 24.3168 23.2223 24.3168 20.8205V15.2789C24.3189 15.1243 24.2904 14.9708 24.2327 14.8273C24.1751 14.6839 24.0895 14.5533 23.9809 14.4432C23.8724 14.3331 23.743 14.2457 23.6004 14.186C23.4578 14.1263 23.3047 14.0956 23.1501 14.0956C22.9955 14.0956 22.8424 14.1263 22.6998 14.186C22.5571 14.2457 22.4278 14.3331 22.3192 14.4432C22.2107 14.5533 22.1251 14.6839 22.0674 14.8273C22.0098 14.9708 21.9812 15.1243 21.9834 15.2789V20.8205C21.9834 21.9561 21.0773 22.8622 19.9418 22.8622H8.27509C7.13952 22.8622 6.23342 21.9561 6.23342 20.8205V9.15388C6.23342 8.01831 7.13952 7.11221 8.27509 7.11221H13.8168C13.9713 7.1144 14.1248 7.08583 14.2683 7.02818C14.4118 6.97053 14.5423 6.88495 14.6524 6.7764C14.7625 6.66784 14.85 6.53849 14.9096 6.39586C14.9693 6.25323 15 6.10015 15 5.94554C15 5.79093 14.9693 5.63786 14.9096 5.49522C14.85 5.35259 14.7625 5.22324 14.6524 5.11469C14.5423 5.00614 14.4118 4.92055 14.2683 4.8629C14.1248 4.80525 13.9713 4.77669 13.8168 4.77888H8.27509Z" fill="#ABB2BF"/>
</svg>
