<svg width="33" height="32" viewBox="0 0 33 32" fill="none" xmlns="http://www.w3.org/2000/svg">
<path d="M16.0874 16C16.0874 15.1159 16.4582 14.2681 17.1182 13.643C17.7781 13.0179 18.6732 12.6667 19.6066 12.6667C20.5399 12.6667 21.435 13.0179 22.095 13.643C22.7549 14.2681 23.1257 15.1159 23.1257 16C23.1257 16.8841 22.7549 17.7319 22.095 18.357C21.435 18.9821 20.5399 19.3333 19.6066 19.3333C18.6732 19.3333 17.7781 18.9821 17.1182 18.357C16.4582 17.7319 16.0874 16.8841 16.0874 16ZM9.04919 22.6667C9.04919 21.7826 9.41996 20.9348 10.0799 20.3096C10.7399 19.6845 11.635 19.3333 12.5683 19.3333H16.0874V22.6667C16.0874 23.5507 15.7167 24.3986 15.0567 25.0237C14.3968 25.6488 13.5016 26 12.5683 26C11.635 26 10.7399 25.6488 10.0799 25.0237C9.41996 24.3986 9.04919 23.5507 9.04919 22.6667ZM16.0874 6V12.6667H19.6066C20.5399 12.6667 21.435 12.3155 22.095 11.6904C22.7549 11.0652 23.1257 10.2174 23.1257 9.33333C23.1257 8.44928 22.7549 7.60143 22.095 6.97631C21.435 6.35119 20.5399 6 19.6066 6H16.0874ZM9.04919 9.33333C9.04919 10.2174 9.41996 11.0652 10.0799 11.6904C10.7399 12.3155 11.635 12.6667 12.5683 12.6667H16.0874V6H12.5683C11.635 6 10.7399 6.35119 10.0799 6.97631C9.41996 7.60143 9.04919 8.44928 9.04919 9.33333ZM9.04919 16C9.04919 16.8841 9.41996 17.7319 10.0799 18.357C10.7399 18.9821 11.635 19.3333 12.5683 19.3333H16.0874V12.6667H12.5683C11.635 12.6667 10.7399 13.0179 10.0799 13.643C9.41996 14.2681 9.04919 15.1159 9.04919 16Z" fill="#ABB2BF"/>
</svg>
