<svg width="33" height="32" viewBox="0 0 33 32" fill="none" xmlns="http://www.w3.org/2000/svg">
<path d="M15.5847 6C9.75177 6 5.02734 10.5882 5.02734 16.2529C5.02734 20.7899 8.04939 24.6219 12.2459 25.9804C12.7738 26.0701 12.9718 25.7625 12.9718 25.4934C12.9718 25.2499 12.9586 24.4425 12.9586 23.5838C10.306 24.058 9.6198 22.9558 9.40866 22.3791C9.28988 22.0843 8.77521 21.1743 8.32652 20.9308C7.95702 20.7386 7.42915 20.2644 8.31333 20.2516C9.14472 20.2388 9.73857 20.9949 9.93652 21.3025C10.8867 22.8533 12.4043 22.4175 13.0114 22.1484C13.1037 21.4819 13.3809 21.0334 13.6844 20.777C11.3354 20.5207 8.88079 19.6364 8.88079 15.7147C8.88079 14.5997 9.28988 13.6769 9.96292 12.9592C9.85734 12.7029 9.48784 11.6519 10.0685 10.2422C10.0685 10.2422 10.9527 9.97301 12.9718 11.2931C13.8164 11.0624 14.7137 10.947 15.6111 10.947C16.5085 10.947 17.4059 11.0624 18.2505 11.2931C20.2696 9.9602 21.1537 10.2422 21.1537 10.2422C21.7344 11.6519 21.3649 12.7029 21.2593 12.9592C21.9323 13.6769 22.3414 14.5868 22.3414 15.7147C22.3414 19.6492 19.8737 20.5207 17.5246 20.777C17.9073 21.0975 18.2373 21.7126 18.2373 22.6738C18.2373 24.0452 18.2241 25.1474 18.2241 25.4934C18.2241 25.7625 18.422 26.0829 18.9499 25.9804C21.0458 25.2935 22.8671 23.9854 24.1573 22.2403C25.4476 20.4953 26.1417 18.4012 26.1421 16.2529C26.1421 10.5882 21.4177 6 15.5847 6Z" fill="#ABB2BF"/>
</svg>
