<svg width="31" height="30" viewBox="0 0 31 30" fill="none" xmlns="http://www.w3.org/2000/svg">
<g clip-path="url(#clip0_1_203)">
<path fill-rule="evenodd" clip-rule="evenodd" d="M2.6054 0C1.42293 0 0.464355 0.953364 0.464355 2.12941V27.8705C0.464355 29.0466 1.42294 29.9999 2.6054 29.9999H28.4873C29.6697 29.9999 30.6283 29.0466 30.6283 27.8705V2.12941C30.6283 0.953373 29.6697 0 28.4873 0H2.6054ZM7.23478 9.31653C8.67995 9.31653 9.85146 8.15133 9.85146 6.71402C9.85146 5.2767 8.67995 4.11153 7.23478 4.11153C5.7896 4.11153 4.61806 5.2767 4.61806 6.71402C4.61806 8.15133 5.7896 9.31653 7.23478 9.31653ZM12.248 11.2398H16.5847V13.2157C16.5847 13.2157 17.7615 10.8749 20.9635 10.8749C23.8198 10.8749 26.186 12.2743 26.186 16.5399V25.5349H21.6919V17.6299C21.6919 15.1135 20.3411 14.8368 19.3118 14.8368C17.1758 14.8368 16.8101 16.6693 16.8101 17.9581V25.5349H12.248V11.2398ZM9.51584 11.2399H4.95372V25.5349H9.51584V11.2399Z" fill="#ABB2BF"/>
</g>
<defs>
<clipPath id="clip0_1_203">
<rect width="30.1639" height="30" fill="white" transform="translate(0.464355)"/>
</clipPath>
</defs>
</svg>
